<?xml version="1.0" encoding="utf-8"?>
<!-- Generator: Adobe Illustrator 22.1.0, SVG Export Plug-In . SVG Version: 6.00 Build 0)  -->
<svg version="1.1" id="Layer_1" xmlns="http://www.w3.org/2000/svg" xmlns:xlink="http://www.w3.org/1999/xlink" x="0px" y="0px"
	 viewBox="0 0 512 512" style="enable-background:new 0 0 512 512;" xml:space="preserve">
<style type="text/css">
	.st0{fill:#FFA743;}
</style>
<g>
	<g>
		<path class="st0" d="M480.9,484.1h-21.2V175.7c0-14.4-11.7-26-26-26h-47.5c-14.4,0-26,11.7-26,26v308.4h-53.9V315.4
			c0-14.4-11.7-26-26-26h-47.5c-14.4,0-26,11.7-26,26V484h-53.9v-87.3c0-14.4-11.7-26-26-26H79.3c-14.4,0-26,11.7-26,26V484H30.9
			c-5.3,0-9.7,4.3-9.7,9.7c0,5.3,4.3,9.7,9.7,9.7H481c5.3,0,9.7-4.3,9.7-9.7C490.6,488.4,486.3,484.1,480.9,484.1z M133.4,484.1
			H72.6v-87.3c0-3.7,3-6.7,6.7-6.7h47.5c3.7,0,6.7,3,6.7,6.7L133.4,484.1L133.4,484.1z M286.9,484.1h-60.8V315.4
			c0-3.7,3-6.7,6.7-6.7h47.5c3.7,0,6.7,3,6.7,6.7v168.7H286.9z M440.3,484.1h-60.8V175.7c0-3.7,3-6.7,6.7-6.7h47.5
			c3.7,0,6.7,3,6.7,6.7L440.3,484.1L440.3,484.1z"/>
	</g>
</g>
<g>
	<g>
		<path class="st0" d="M459.7,17.9c0.1-2.6-0.8-5.3-2.8-7.3s-4.7-2.9-7.3-2.8c-0.2,0-0.3,0-0.5,0h-58.6c-5.3,0-9.7,4.3-9.7,9.7
			s4.3,9.7,9.7,9.7h36.2L331,122.9l-36.1-36.1c-1.8-1.8-4.3-2.8-6.8-2.8c-2.6,0-5,1-6.8,2.8l-174.2,174c-3.8,3.8-3.8,9.9,0,13.7
			c1.9,1.9,4.4,2.8,6.8,2.8c2.5,0,5-0.9,6.8-2.8L288,107.2l36.1,36.1c3.8,3.8,9.9,3.8,13.7,0L440.3,40.8v32.7c0,5.3,4.3,9.7,9.7,9.7
			c5.3,0,9.7-4.3,9.7-9.7V18.4C459.7,18.2,459.7,18,459.7,17.9z"/>
	</g>
</g>
<g>
	<g>
		<circle class="st0" cx="81.3" cy="301.4" r="9.7"/>
	</g>
</g>
</svg>
