<?xml version="1.0" encoding="utf-8"?>
<!-- Generator: Adobe Illustrator 22.1.0, SVG Export Plug-In . SVG Version: 6.00 Build 0)  -->
<svg version="1.1" id="Layer_1" xmlns="http://www.w3.org/2000/svg" xmlns:xlink="http://www.w3.org/1999/xlink" x="0px" y="0px"
	 viewBox="0 0 512 512" style="enable-background:new 0 0 512 512;" xml:space="preserve">
<style type="text/css">
	.st0{fill:#FFA743;}
</style>
<g>
	<g>
		<circle class="st0" cx="-581.7" cy="269.4" r="9.7"/>
	</g>
</g>
<g>
	<path class="st0" d="M50.9,452.5c-11.9-11.5-21.2-25-27.9-40.1c3.5,25.8,13.5,47.9,30.6,64.3c54.7,52.8,178.1,25.7,277.5-57.1
		C225.1,483.9,111.4,510.8,50.9,452.5z"/>
</g>
<path class="st0" d="M142.7,140.2c107.6-99.2,275.3-139.6,349-62.4c1.5,1.5,2.8,3.1,4.2,4.7c-5.1-18-13.9-33.6-26.8-46.1
	c-66-63.6-216.1-21.3-329,98.7C79.7,199.5,124.7,156.9,142.7,140.2z"/>
<g>
	<path class="st0" d="M422.6,246.2h-51c-0.4-24.8-3.8-48.7-9.8-69.9h33.4c2.7,0,5-2.2,5-5c0-2.7-2.2-5-5-5h-36.5
		c-5.3-16-12.1-30.1-20.2-41.4c-1.6-2.2-4.7-2.7-6.9-1.2c-2.2,1.6-2.7,4.7-1.2,6.9c7,9.8,13,22,17.8,35.7h-51.5v-45.8
		c0-2.7-2.2-5-5-5s-5,2.2-5,5v45.8h-51.5c4.8-13.7,10.8-25.8,17.8-35.7c1.6-2.2,1.1-5.3-1.2-6.9c-2.2-1.6-5.3-1.1-6.9,1.2
		c-8.1,11.3-14.9,25.5-20.2,41.4h-36.5c-2.7,0-5,2.2-5,5c0,2.7,2.2,5,5,5h33.4c-5.9,21.2-9.4,45.1-9.8,69.9h-51c-2.7,0-5,2.2-5,5
		s2.2,5,5,5h51c0.4,24.8,3.8,48.7,9.8,69.9h-33.4c-2.7,0-5,2.2-5,5c0,2.7,2.2,5,5,5h36.5c5.3,16,12.1,30.1,20.2,41.5
		c1,1.4,2.5,2.1,4,2.1c1,0,2-0.3,2.9-0.9c2.2-1.6,2.7-4.7,1.2-6.9c-7-9.8-13-22-17.8-35.7H287v45.8c0,2.7,2.2,5,5,5c2.7,0,5-2.2,5-5
		V336h51.5c-4.8,13.7-10.8,25.8-17.8,35.7c-1.6,2.2-1.1,5.3,1.2,6.9c0.9,0.6,1.9,0.9,2.9,0.9c1.5,0,3.1-0.7,4-2.1
		c8.1-11.3,14.9-25.5,20.2-41.5h36.5c2.7,0,5-2.2,5-5c0-2.7-2.2-5-5-5h-33.4c5.9-21.2,9.4-45.1,9.8-69.9h51c2.7,0,5-2.2,5-5
		S425.4,246.2,422.6,246.2L422.6,246.2z M351.6,176.3c6.2,21,9.7,45,10.1,69.9h-64.8v-69.9H351.6z M232.3,176.3H287v69.9h-64.8
		C222.6,221.3,226.2,197.3,232.3,176.3z M232.3,326.1c-6.2-21-9.7-45-10.1-69.9H287v69.9H232.3z M351.6,326.1h-54.7v-69.9h64.8
		C361.3,281.1,357.8,305.1,351.6,326.1z"/>
	<path class="st0" d="M401.9,141.3c-29.4-29.4-68.4-45.5-109.9-45.5s-80.6,16.2-109.9,45.5s-45.5,68.4-45.5,109.9
		c0,30.6,8.9,60.1,25.6,85.5l-19,57c-0.6,1.8-0.1,3.7,1.2,5.1c1.3,1.3,3.3,1.8,5.1,1.2l57-19c25.4,16.8,54.9,25.6,85.5,25.6
		c41.5,0,80.6-16.2,109.9-45.5s45.5-68.4,45.5-109.9C447.4,209.7,431.2,170.6,401.9,141.3z M292,396.7c-29.4,0-57.8-8.7-82-25.3
		c-0.8-0.6-1.8-0.9-2.8-0.9c-0.5,0-1.1,0.1-1.6,0.3l-49.9,16.6l16.6-49.9c0.5-1.5,0.3-3.1-0.6-4.4c-16.5-24.2-25.3-52.6-25.3-82
		c0-80.2,65.3-145.5,145.5-145.5S437.5,171,437.5,251.2C437.5,331.4,372.2,396.7,292,396.7z"/>
</g>
</svg>
